<?xml version="1.0" standalone="no"?>
<!DOCTYPE svg PUBLIC "-//W3C//DTD SVG 20010904//EN"
 "http://www.w3.org/TR/2001/REC-SVG-20010904/DTD/svg10.dtd">
<svg version="1.0" xmlns="http://www.w3.org/2000/svg"
 width="512.000000pt" height="512.000000pt" viewBox="0 0 512.000000 512.000000"
 preserveAspectRatio="xMidYMid meet">
<metadata>
Created by potrace 1.11, written by Peter Selinger 2001-2013
</metadata>
<g transform="translate(0.000000,512.000000) scale(0.100000,-0.100000)"
fill="#000000" stroke="none">
<path d="M2359 5046 c-2 -2 -39 -7 -82 -11 -63 -5 -247 -40 -372 -70 -45 -10
-205 -65 -280 -95 -172 -69 -399 -195 -534 -297 -234 -176 -457 -408 -595
-618 -22 -33 -47 -71 -56 -85 -110 -166 -241 -473 -296 -698 -17 -71 -35 -162
-40 -200 -3 -25 -7 -49 -9 -52 -19 -31 -28 -500 -12 -635 60 -513 264 -975
603 -1365 104 -120 152 -166 314 -303 144 -122 416 -283 610 -362 110 -44 320
-110 415 -129 17 -3 51 -10 77 -16 26 -5 71 -12 100 -15 29 -4 82 -10 118 -15
69 -9 468 -6 535 4 43 7 196 33 232 40 196 38 503 155 694 264 20 11 47 26 60
34 13 7 26 15 29 19 3 3 23 16 45 29 39 23 185 128 195 139 3 3 32 28 65 55
152 124 348 346 470 532 140 212 292 558 330 752 2 9 10 44 18 77 8 33 18 82
22 108 3 27 9 59 11 70 19 85 26 514 11 632 -15 120 -19 141 -34 210 -8 39
-17 81 -19 94 -3 14 -7 28 -9 31 -2 4 -7 20 -10 37 -2 17 -18 71 -34 119 -87
267 -209 503 -375 724 -90 121 -108 142 -236 271 -296 299 -661 515 -1067 633
-65 19 -134 37 -153 40 -19 3 -46 8 -60 11 -34 7 -135 23 -195 31 -54 7 -480
16 -486 10z"/>
</g>
</svg>
